<mxfile host="app.diagrams.net" agent="Mozilla/5.0 (Macintosh; Intel Mac OS X 10_15_7) AppleWebKit/537.36 (KHTML, like Gecko) Chrome/136.0.0.0 Safari/537.36" version="27.0.6">
  <diagram name="Pagina-1" id="nPavbeH6nn2VALaaczEt">
    <mxGraphModel dx="259" dy="176" grid="1" gridSize="10" guides="1" tooltips="1" connect="1" arrows="1" fold="1" page="1" pageScale="1" pageWidth="827" pageHeight="1169" math="0" shadow="0">
      <root>
        <mxCell id="0" />
        <mxCell id="1" parent="0" />
        <mxCell id="r98uOiwapoowLGqWTy0t-3" value="Encounter" style="text;html=1;align=center;verticalAlign=middle;resizable=0;points=[];autosize=1;strokeColor=none;fillColor=none;" vertex="1" parent="1">
          <mxGeometry x="200" y="495" width="80" height="30" as="geometry" />
        </mxCell>
        <mxCell id="r98uOiwapoowLGqWTy0t-38" style="edgeStyle=orthogonalEdgeStyle;rounded=0;orthogonalLoop=1;jettySize=auto;html=1;exitX=0;exitY=0.5;exitDx=0;exitDy=0;endArrow=none;startFill=0;" edge="1" parent="1" source="r98uOiwapoowLGqWTy0t-5">
          <mxGeometry relative="1" as="geometry">
            <mxPoint x="429.9999999999999" y="527.8571428571429" as="targetPoint" />
          </mxGeometry>
        </mxCell>
        <mxCell id="r98uOiwapoowLGqWTy0t-43" style="edgeStyle=orthogonalEdgeStyle;rounded=0;orthogonalLoop=1;jettySize=auto;html=1;exitX=1;exitY=0.5;exitDx=0;exitDy=0;entryX=0;entryY=0.5;entryDx=0;entryDy=0;endArrow=none;startFill=0;" edge="1" parent="1" source="r98uOiwapoowLGqWTy0t-5" target="r98uOiwapoowLGqWTy0t-42">
          <mxGeometry relative="1" as="geometry" />
        </mxCell>
        <mxCell id="r98uOiwapoowLGqWTy0t-5" value="" style="ellipse;whiteSpace=wrap;html=1;aspect=fixed;fillColor=#FFFFFF;" vertex="1" parent="1">
          <mxGeometry x="530" y="522" width="12" height="12" as="geometry" />
        </mxCell>
        <mxCell id="r98uOiwapoowLGqWTy0t-6" value="Organization" style="text;html=1;align=center;verticalAlign=middle;resizable=0;points=[];autosize=1;strokeColor=none;fillColor=none;" vertex="1" parent="1">
          <mxGeometry x="491" y="492" width="90" height="30" as="geometry" />
        </mxCell>
        <mxCell id="r98uOiwapoowLGqWTy0t-8" value="Name" style="text;html=1;align=center;verticalAlign=middle;resizable=0;points=[];autosize=1;strokeColor=none;fillColor=none;" vertex="1" parent="1">
          <mxGeometry x="575" y="492" width="60" height="30" as="geometry" />
        </mxCell>
        <mxCell id="r98uOiwapoowLGqWTy0t-21" value="Take_Place_In" style="swimlane;fontStyle=0;childLayout=stackLayout;horizontal=1;startSize=30;horizontalStack=0;resizeParent=1;resizeParentMax=0;resizeLast=0;collapsible=1;marginBottom=0;whiteSpace=wrap;html=1;" vertex="1" parent="1">
          <mxGeometry x="291" y="480" width="140" height="60" as="geometry" />
        </mxCell>
        <mxCell id="r98uOiwapoowLGqWTy0t-36" style="edgeStyle=orthogonalEdgeStyle;rounded=0;orthogonalLoop=1;jettySize=auto;html=1;exitX=1;exitY=0.5;exitDx=0;exitDy=0;endArrow=none;startFill=0;" edge="1" parent="1" source="r98uOiwapoowLGqWTy0t-25">
          <mxGeometry relative="1" as="geometry">
            <mxPoint x="215" y="526.75" as="sourcePoint" />
            <mxPoint x="291" y="526.75" as="targetPoint" />
          </mxGeometry>
        </mxCell>
        <mxCell id="r98uOiwapoowLGqWTy0t-25" value="" style="ellipse;whiteSpace=wrap;html=1;aspect=fixed;fillColor=#FFFFFF;" vertex="1" parent="1">
          <mxGeometry x="200" y="520" width="14" height="14" as="geometry" />
        </mxCell>
        <mxCell id="r98uOiwapoowLGqWTy0t-26" style="rounded=0;orthogonalLoop=1;jettySize=auto;html=1;exitX=1;exitY=0.5;exitDx=0;exitDy=0;entryX=0.5;entryY=0;entryDx=0;entryDy=0;endArrow=none;startFill=0;" edge="1" parent="1" source="r98uOiwapoowLGqWTy0t-27" target="r98uOiwapoowLGqWTy0t-25">
          <mxGeometry relative="1" as="geometry" />
        </mxCell>
        <mxCell id="r98uOiwapoowLGqWTy0t-27" value="" style="ellipse;whiteSpace=wrap;html=1;aspect=fixed;fillColor=#FFFFFF;" vertex="1" parent="1">
          <mxGeometry x="140" y="430" width="14" height="14" as="geometry" />
        </mxCell>
        <mxCell id="r98uOiwapoowLGqWTy0t-28" style="rounded=0;orthogonalLoop=1;jettySize=auto;html=1;exitX=1;exitY=0.5;exitDx=0;exitDy=0;entryX=0;entryY=0.5;entryDx=0;entryDy=0;endArrow=none;startFill=0;" edge="1" parent="1" source="r98uOiwapoowLGqWTy0t-29" target="r98uOiwapoowLGqWTy0t-25">
          <mxGeometry relative="1" as="geometry" />
        </mxCell>
        <mxCell id="r98uOiwapoowLGqWTy0t-29" value="" style="ellipse;whiteSpace=wrap;html=1;aspect=fixed;fillColor=#FFFFFF;" vertex="1" parent="1">
          <mxGeometry x="60" y="520" width="14" height="14" as="geometry" />
        </mxCell>
        <mxCell id="r98uOiwapoowLGqWTy0t-30" value="Gender" style="text;html=1;align=center;verticalAlign=middle;resizable=0;points=[];autosize=1;strokeColor=none;fillColor=none;" vertex="1" parent="1">
          <mxGeometry x="10" y="504" width="60" height="30" as="geometry" />
        </mxCell>
        <mxCell id="r98uOiwapoowLGqWTy0t-31" value="Birthdate" style="text;html=1;align=center;verticalAlign=middle;resizable=0;points=[];autosize=1;strokeColor=none;fillColor=none;" vertex="1" parent="1">
          <mxGeometry x="110" y="400" width="70" height="30" as="geometry" />
        </mxCell>
        <mxCell id="r98uOiwapoowLGqWTy0t-32" style="rounded=0;orthogonalLoop=1;jettySize=auto;html=1;exitX=1;exitY=0.5;exitDx=0;exitDy=0;entryX=0.5;entryY=1;entryDx=0;entryDy=0;endArrow=none;startFill=0;" edge="1" parent="1" source="r98uOiwapoowLGqWTy0t-33" target="r98uOiwapoowLGqWTy0t-25">
          <mxGeometry relative="1" as="geometry" />
        </mxCell>
        <mxCell id="r98uOiwapoowLGqWTy0t-33" value="" style="ellipse;whiteSpace=wrap;html=1;aspect=fixed;fillColor=#FFFFFF;" vertex="1" parent="1">
          <mxGeometry x="154" y="610" width="16" height="16" as="geometry" />
        </mxCell>
        <mxCell id="r98uOiwapoowLGqWTy0t-34" value="Start" style="text;html=1;align=center;verticalAlign=middle;resizable=0;points=[];autosize=1;strokeColor=none;fillColor=none;" vertex="1" parent="1">
          <mxGeometry x="110" y="610" width="50" height="30" as="geometry" />
        </mxCell>
        <mxCell id="r98uOiwapoowLGqWTy0t-42" value="" style="ellipse;whiteSpace=wrap;html=1;aspect=fixed;fillColor=#FFFFFF;" vertex="1" parent="1">
          <mxGeometry x="599" y="522" width="12" height="12" as="geometry" />
        </mxCell>
      </root>
    </mxGraphModel>
  </diagram>
</mxfile>
